<?xml version="1.0"?>
<svg version="1.1" xmlns="http://www.w3.org/2000/svg" width="500" height="300" style=""><path fill="#f2f7fa" d="M45.888,143.142l-0.378,3.132c-0.108,0.918-0.702,1.134-1.674,1.134l-9.774,0l0,30.51c0,1.026-0.216,1.242-1.134,1.242l-4.752,0c-0.972,0-1.134-0.216-1.134-1.188l0-30.564l-10.098,0c-0.918,0-1.242-0.378-1.242-1.296l0-3.186c0-0.81,0.378-1.134,1.188-1.134l27.324,0c1.404,0,1.782,0.432,1.674,1.35z M76.263,178.08c0,0.81-0.162,1.08-0.864,1.08l-4.752,0c-0.756,0-0.918-0.216-0.918-1.08l0-15.012c0-2.916-0.81-5.076-4.05-5.076c-2.106,0-4.806,1.134-6.48,2.592l0,17.496c0,0.81-0.216,1.08-1.026,1.08l-4.644,0c-0.648,0-0.864-0.27-0.864-0.972l0-35.694c0-0.972,0.432-1.242,1.188-1.35l3.726-0.486c0.216-0.054,0.486-0.054,0.702-0.054c0.594,0,0.918,0.27,0.918,1.026l0,13.554c2.268-1.89,5.67-2.916,8.532-2.916c6.048,0,8.532,3.834,8.532,9.666l0,16.146z M109.176,165.984c0,1.296-0.432,1.566-1.782,1.566l-15.822,0c0.432,4.158,3.456,7.02,7.722,7.02c2.268,0,4.644-0.54,6.642-1.296c0.216-0.054,0.378-0.162,0.594-0.162c0.378,0,0.648,0.216,0.756,0.648l0.756,2.754c0.054,0.27,0.108,0.486,0.108,0.648c0,0.378-0.216,0.648-0.864,0.918c-2.646,1.188-6.264,1.728-9.072,1.728c-8.478,0-13.5-5.4-13.5-13.824c0-8.1,5.346-13.716,13.392-13.716c3.294,0,5.994,1.242,7.884,3.24c2.484,2.592,3.186,5.994,3.186,9.666l0,0.81z M102.75,163.284l0-0.594c-0.108-2.808-1.728-5.4-5.022-5.4c-3.51,0-5.616,2.808-6.048,5.994l11.07,0z M156.912,177.864c0,0.864-0.378,1.296-1.296,1.296l-20.034,0c-1.08,0-1.458-0.27-1.458-1.458l0-34.56c0-0.864,0.378-1.35,1.242-1.35l20.358,0c0.864,0,1.134,0.324,1.134,0.918l0,0.324l-0.378,3.24c-0.108,0.972-0.702,1.134-1.836,1.134l-13.554,0l0,9.774l12.474,0c1.026,0,1.35,0.432,1.35,1.188l0,3.078c0,0.918-0.378,1.296-1.296,1.296l-12.528,0l0,10.8l14.472,0c0.918,0,1.35,0.378,1.35,1.242l0,3.078z M180.645,153.186c0,0.162,0,0.324-0.054,0.486l-0.594,3.834c-0.054,0.486-0.324,0.702-0.756,0.702l-0.216,0c-0.432-0.108-0.972-0.162-1.458-0.162c-1.836,0-3.834,0.972-5.184,2.592l0,17.172c0,0.864-0.378,1.35-1.296,1.35l-3.942,0c-0.864,0-1.296-0.432-1.296-1.35l0-16.848l0-6.642c0-1.08,0.54-1.35,1.35-1.35l3.456,0c0.864,0,1.35,0.27,1.35,1.026l0.054,1.728c1.674-2.106,3.51-3.456,6.534-3.456c0.432,0,1.026,0.108,1.512,0.216c0.378,0.108,0.54,0.27,0.54,0.702z M210.966,177.648c0,1.134-0.324,1.512-1.404,1.512l-3.456,0c-0.702,0-1.242-0.378-1.296-1.08l-0.054-1.35c-2.484,1.998-5.454,3.078-8.586,3.078c-6.048,0-8.532-3.834-8.532-9.666l0-15.93c0-0.918,0.54-1.242,1.404-1.242l3.78,0c0.864,0,1.35,0.27,1.35,1.242l0,14.796c0,2.97,0.756,5.022,3.996,5.022c2.052,0,4.644-1.134,6.264-2.592l0-17.226c0-0.918,0.486-1.242,1.35-1.242l3.834,0c0.864,0,1.35,0.27,1.35,1.242l0,23.436z M244.203,177.81c0,0.918-0.54,1.35-1.188,1.35l-3.51,0c-0.864,0-1.242-0.432-1.296-1.08l-0.108-1.458c-1.512,1.728-4.536,3.186-7.344,3.186c-7.83,0-11.394-6.21-11.394-13.446c0-7.56,4.212-14.148,11.826-14.148c2.43,0,4.968,0.972,6.48,2.538l0-12.15c0-0.972,0.27-1.35,1.134-1.458l3.996-0.54c0.054,0,0.486-0.054,0.54-0.054c0.648,0,0.864,0.27,0.864,1.08l0,36.18z M237.669,171.816l0-11.718c-1.08-1.458-3.132-2.646-5.184-2.646c-4.374,0-6.318,4.104-6.318,8.532s1.62,8.532,5.994,8.532c1.998,0,4.428-1.35,5.508-2.7z M261.51,146.112c0,2.106-1.836,3.402-3.618,3.402s-3.672-1.188-3.672-3.348s1.782-3.456,3.672-3.456c1.836,0,3.618,1.242,3.618,3.402z M261.186,177.81c0,0.972-0.432,1.35-1.35,1.35l-3.78,0c-0.972,0-1.404-0.378-1.404-1.35l0-23.598c0-0.918,0.54-1.242,1.404-1.242l3.78,0c0.864,0,1.35,0.27,1.35,1.242l0,23.598z M287.835,177.54c0,0.54-0.27,0.81-0.81,1.026c-1.674,0.702-3.888,1.242-6.048,1.242c-2.754,0-5.13-0.702-6.48-2.268c-1.674-1.89-1.728-4.104-1.728-8.046l0-12.042l-2.538,0c-1.026,0-1.188-0.216-1.188-1.35l0-2.052c0-0.648,0.324-1.08,0.972-1.08l2.754,0l0-5.886c0-0.918,0.486-1.188,1.35-1.296l3.888-0.486l0.27,0c0.702,0,1.026,0.378,1.026,1.188l0,6.48l6.102,0c0.648,0,1.026,0.216,1.026,0.918l0,2.538c0,0.648-0.432,1.026-1.08,1.026l-6.048,0l0,12.366c0,1.62,0.108,2.808,0.702,3.672c0.486,0.702,1.242,1.134,2.538,1.134c1.35,0,2.484-0.324,3.456-0.648c0.216-0.054,0.378-0.108,0.54-0.108c0.378,0,0.594,0.216,0.702,0.648l0.54,2.7c0.054,0.162,0.054,0.216,0.054,0.324z M318.156,165.984c0,1.296-0.432,1.566-1.782,1.566l-15.822,0c0.432,4.158,3.456,7.02,7.722,7.02c2.268,0,4.644-0.54,6.642-1.296c0.216-0.054,0.378-0.162,0.594-0.162c0.378,0,0.648,0.216,0.756,0.648l0.756,2.754c0.054,0.27,0.108,0.486,0.108,0.648c0,0.378-0.216,0.648-0.864,0.918c-2.646,1.188-6.264,1.728-9.072,1.728c-8.478,0-13.5-5.4-13.5-13.824c0-8.1,5.346-13.716,13.392-13.716c3.294,0,5.994,1.242,7.884,3.24c2.484,2.592,3.186,5.994,3.186,9.666l0,0.81z M311.73,163.284l0-0.594c-0.108-2.808-1.728-5.4-5.022-5.4c-3.51,0-5.616,2.808-6.048,5.994l11.07,0z M369.834,178.512c0,0.432-0.324,0.648-0.81,0.648l-4.914,0c-0.972,0-1.62-0.27-2.106-1.08l-7.776-12.69l-4.158,0l0,12.42c0,0.81-0.324,1.35-1.242,1.35l-4.428,0c-0.918,0-1.296-0.432-1.296-1.35l0-34.452c0-1.188,0.27-1.566,1.458-1.566l7.992,0c4.698,0,9.666,0.702,12.528,3.996c1.728,1.998,2.592,4.644,2.592,7.56c0,4.968-2.646,8.856-6.966,10.746l8.856,13.662c0.162,0.27,0.27,0.54,0.27,0.756z M360.6,153.456c0-4.698-3.132-6.372-7.83-6.372l-2.7,0l0,13.068l3.348,0c4.32,0,7.182-2.322,7.182-6.696z M402.207,166.038c0,7.776-4.752,13.77-13.176,13.77c-8.802,0-12.852-5.94-12.852-13.824c0-7.776,4.752-13.716,13.176-13.716c8.802,0,12.852,5.832,12.852,13.77z M395.457,166.038c0-4.428-1.404-8.64-6.156-8.64c-4.806,0-6.372,4.158-6.372,8.478c0,4.428,1.35,8.802,6.156,8.802c4.752,0,6.372-4.212,6.372-8.64z M435.12,166.038c0,7.776-4.752,13.77-13.176,13.77c-8.802,0-12.852-5.94-12.852-13.824c0-7.776,4.752-13.716,13.176-13.716c8.802,0,12.852,5.832,12.852,13.77z M428.37,166.038c0-4.428-1.404-8.64-6.156-8.64c-4.806,0-6.372,4.158-6.372,8.478c0,4.428,1.35,8.802,6.156,8.802c4.752,0,6.372-4.212,6.372-8.64z M482.667,177.81c0,0.972-0.378,1.35-1.296,1.35l-3.78,0c-0.972,0-1.404-0.378-1.404-1.35l0-14.796c0-2.916-0.756-5.13-4.05-5.13c-2.052,0-4.428,1.08-6.102,2.43c0.108,0.486,0.216,7.722,0.216,8.478l0,9.018c0,0.972-0.378,1.35-1.296,1.35l-3.564,0c-0.972,0-1.404-0.378-1.404-1.35l0-14.796c0-2.862-0.594-5.13-3.888-5.13c-2.106,0-4.266,1.188-5.994,2.7l0,17.226c0,0.972-0.432,1.35-1.35,1.35l-3.78,0c-0.972,0-1.404-0.378-1.404-1.35l0-23.598c0-0.864,0.486-1.242,1.296-1.242l3.51,0c0.81,0,1.296,0.27,1.35,1.026l0.054,1.35c2.214-1.944,5.13-3.078,7.938-3.078c3.294,0,5.616,1.458,6.858,3.51c2.43-2.322,5.94-3.51,9.234-3.51c3.942,0,6.426,1.944,7.56,4.05c1.026,1.998,1.296,4.374,1.296,7.83l0,13.662z"/><path fill="#f0f0f0" d=""/></svg>
